<svg width="50" height="51" viewBox="0 0 50 51" fill="none" xmlns="http://www.w3.org/2000/svg">
<path fill-rule="evenodd" clip-rule="evenodd" d="M11.4128 12.1669C11.8162 10.8557 13.0277 9.96094 14.3996 9.96094H18.75C19.6129 9.96094 20.3125 9.26138 20.3125 8.39844C20.3125 7.53549 19.6129 6.83594 18.75 6.83594H14.3996C11.6558 6.83594 9.23286 8.62545 8.42595 11.2479L3.40138 27.5777C3.21816 28.1732 3.125 28.7928 3.125 29.4158V38.0859C3.125 41.5377 5.92322 44.3359 9.375 44.3359H40.625C44.0768 44.3359 46.875 41.5377 46.875 38.0859V29.4158C46.875 28.7928 46.7818 28.1732 46.5986 27.5777L41.574 11.2479C40.7671 8.62545 38.3442 6.83594 35.6004 6.83594H31.25C30.3871 6.83594 29.6875 7.53549 29.6875 8.39844C29.6875 9.26138 30.3871 9.96094 31.25 9.96094H35.6004C36.9723 9.96094 38.1838 10.8557 38.5872 12.1669L43.1969 27.1484H37.272C34.9047 27.1484 32.7406 28.486 31.6819 30.6034L31.148 31.671C30.6187 32.7297 29.5366 33.3984 28.353 33.3984H21.647C20.4634 33.3984 19.3813 32.7297 18.8519 31.671L18.3181 30.6034C17.2594 28.486 15.0953 27.1484 12.728 27.1484H6.80306L11.4128 12.1669Z" fill="url(#paint0_linear_2657_66301)"/>
<path fill-rule="evenodd" clip-rule="evenodd" d="M25 5.27344C25.8629 5.27344 26.5625 5.97299 26.5625 6.83594V20.2512L30.1451 16.6686C30.7553 16.0584 31.7447 16.0584 32.3549 16.6686C32.9651 17.2788 32.9651 18.2681 32.3549 18.8783L26.1049 25.1283C25.4947 25.7385 24.5053 25.7385 23.8951 25.1283L17.6451 18.8783C17.035 18.2681 17.035 17.2788 17.6451 16.6686C18.2553 16.0584 19.2447 16.0584 19.8549 16.6686L23.4375 20.2512V6.83594C23.4375 5.97299 24.1371 5.27344 25 5.27344Z" fill="url(#paint1_linear_2657_66301)"/>
<defs>
<linearGradient id="paint0_linear_2657_66301" x1="46.875" y1="21.8958" x2="5.21942" y2="21.8958" gradientUnits="userSpaceOnUse">
<stop stop-color="#A855F7"/>
<stop offset="1" stop-color="#2563EB"/>
</linearGradient>
<linearGradient id="paint1_linear_2657_66301" x1="46.875" y1="21.8958" x2="5.21942" y2="21.8958" gradientUnits="userSpaceOnUse">
<stop stop-color="#A855F7"/>
<stop offset="1" stop-color="#2563EB"/>
</linearGradient>
</defs>
</svg>
