<svg width="32" height="32" viewBox="0 0 32 32" fill="none" xmlns="http://www.w3.org/2000/svg">
<rect x="0.861435" y="0.861435" width="30.2771" height="30.2771" rx="15.1386" stroke="#D7D9DD" stroke-width="1.72287"/>
<path d="M14.9669 12.642L11.6417 21.7732H9.8155L6.49036 12.642H8.04094L10.7286 20.2571L13.4163 12.642H14.9669ZM20.534 14.5544C21.6884 14.5716 23.0666 14.0375 23.0666 12.4525C23.0666 11.3843 22.1018 10.7124 20.534 10.7124C19.2591 10.7124 18.3632 11.3326 18.2082 12.3146L16.6576 12.2113C16.8815 10.4884 18.4838 9.26516 20.534 9.26516C22.946 9.26516 24.6345 10.5745 24.6345 12.4525C24.6345 13.8135 23.8592 14.7267 22.3775 15.1574C24.0831 15.657 25.0479 16.8286 25.0479 18.4136C25.0479 20.55 23.1872 22.0489 20.534 22.0489C18.0876 22.0489 16.313 20.6361 16.2096 18.6203L17.743 18.517C17.8808 20.0159 19.3108 20.6016 20.534 20.6016C21.9812 20.6016 23.4974 19.947 23.4974 18.293C23.4974 16.6563 21.9812 15.9499 20.534 15.9844L19.5865 16.0016V14.5371L20.534 14.5544Z" fill="white"/>
</svg>
